<svg xmlns="http://www.w3.org/2000/svg" id="Layer_1" data-name="Layer 1" viewBox="0 0 512 512"><defs><style>.cls-11,.cls-12,.cls-14,.cls-15,.cls-16,.cls-17,.cls-19,.cls-20,.cls-4,.cls-5,.cls-8,.cls-9{stroke-width:0}.cls-4{fill:#f32611}.cls-5{fill:#f1260f}.cls-9{fill:#1f1e26}.cls-11{fill:#aabcca}.cls-12{fill:#f7230f}.cls-14{fill:#f22511}.cls-15{fill:#ef2511}.cls-16{fill:#ee1e0a}.cls-17{fill:#f22310}.cls-19{fill:#f32412}.cls-20{fill:#fbfbfb}</style></defs><path d="M254.85 510.11c-93.89-3.14-164.23-45.91-211.23-126.96-16.64-28.7-26.73-59.9-30.7-92.86C1.89 198.73 30 121.19 99.16 60.15 149.23 15.95 208.88-2.73 275.6 2.74c56.23 4.61 104.52 27.31 145.36 65.97 35.24 33.35 58.15 74.08 71.04 120.63 6.72 24.26 10.35 48.98 9.2 74.17-1.19 26.07-6.67 51.38-15.17 76.05-17.5 50.78-47.16 92.76-90.49 124.7-38.18 28.14-81.15 43.23-128.5 45.82-4.05.22-8.12.03-12.18.03Z" class="cls-8"/><path d="M88.41 314.16c-6.73-21.82-9.19-44.23-9.32-66.99-.06-11.06 2.09-21.82 4.24-32.54 3.02-15.08 8.57-29.32 15.54-43.03 6.88-13.54 6.57-13.87-6.56-22.33-9.22-5.94-18.33-12.06-28.1-17.07-2.71-1.39-3.05-2.78-1.48-5.09 10.75-15.88 22.47-30.95 36.75-43.88 5.22-4.72 10.43-9.47 15.57-14.27 2.72-2.54 4.49-2.48 6.78.89 7.73 11.41 17.62 20.96 27.6 30.35 4.44 4.17 9.79 4.05 15.05 1.21 10.84-5.84 21.71-11.66 33.42-15.6 16.65-5.6 33.63-9.24 51.32-9.82 28.74-.93 55.8 5.35 81.65 17.48 3.97 1.86 7.7 4.2 11.62 6.16 6.97 3.49 12.6 1.53 18.92-3.09 10.36-7.59 19.55-16.23 26.34-26.57 18.28 13.6 34.43 30.1 48.09 48.27 2.33 3.1 5.02 5.96 6.94 9.36.78 1.37 2.4 2.55 1.43 4.51-8.9 5.69-17.68 11.6-26.78 16.95-2.91 1.71-5.51 3.77-8.17 5.71-3.53 2.57-4 7.85-1.3 12.52 10.08 17.41 16.27 36.23 19.71 55.89 3.89 22.19 3.52 44.46-.97 66.59-2.58 7.56-4.49 15.35-7.64 22.72-2.48 4.41-6.57 8.14-5.87 13.9.02 1.77-1.11 3.05-1.88 4.49-1.81 2.46-3.54 4.96-3.76 8.16-.39 1.24-.92 2.39-2.01 3.19-5.61 1.45-5.32 1.42-5.12-4.34.14-3.98 1.75-6.77 3.96-9.92 3.72-5.3 3.27-11.79 3.22-18 2.62-12.95 6.28-25.76 7.25-38.94 1.17-15.84 1.71-31.73-2.2-47.47-1.75-7.04-2.94-14.23-5.06-21.21-6.24-20.61-16.9-38.69-30.79-55.03-14.15-16.63-31.34-29.4-50.5-39.49-15.42-8.12-32.1-12.54-49.33-15.1-17.78-2.65-35.48-1.95-53.03 1.26-19.35 3.54-37.26 10.98-54.13 21.17-27.44 16.56-46.79 39.97-60.68 68.58-8.67 17.86-12.5 36.69-14.55 56.17-2.72 25.78 1.78 50.57 9.32 75.03.25.81.41 1.64.44 2.49-1.58 5.12.24 10.66 4.49 13.62 2.32 2.06 3.07 5 4.32 7.66.05 3.16-2.28 4.56-4.68 5.03-2.58.5-3.55-2.12-4.54-3.98-1.9-3.54-3.94-6.92-7.19-9.41-3.49-2.86-3.58-7.43-5.56-11.05-.94-1.72-.73-4.04-2.77-5.16Z" class="cls-12"/><path d="M408.7 310.15c-.05 7.57 1.23 15.48-5.52 21.32-3.19 2.76.21 7.01-2.88 10.21h5.28c.45 2.74-1.16 5.52.15 8.24-.47 5.06 2.42 8.25 6.29 10.62 7.65 4.69 15.44 9.17 23.16 13.74 1.67 1.18 6.24 3.88 9.11 5.34 1.28.65.54 3.46.11 4.16-6.79 11.05-8.22 15.56-16.44 24.5-4.47 6.02-15.13 18.26-20.62 23.28-3.28 3.85-9.48 8.22-13.12 11.19-1.8 1.47-4.28 2.4-6.62-.24-1.24-1.39-4.09-4.02-5.78-5.71-7.3-7.32-17.37-16.94-21.25-21.5-2.68-3.15-5.76-5.56-9.86-6.5-1.4-1.01-.17-2.97-1.61-4.23-12.92 8.47-27 14.52-41.64 19.35-13.4 4.42-27.21 6.57-41.26 7.75-14.97 1.25-29.69-.36-44.36-2.75-16.48-2.69-32.06-8.2-46.84-15.95-3.75-1.97-7.58-3.76-11.38-5.62-2.25-1.11-4.42-2.88-5.65 1.17-.29.94-1.82.71-2.65 1.28-4.99 3.17-8.71 7.72-12.86 11.8-4.43 4.35-9.96 9.53-13.68 13.43-2.08 2.12-4.34 4.06-6.99 6.51-3.39 3.12-6.44 2.66-8.89.03-6.38-6.86-13.36-13.4-20.36-21.23-4.5-5.04-13.11-16.51-16.36-21.02-3.15-4.63-7.7-11.62-9.59-14.8-1.28-2.16-2.98-4.15-.33-5.78 2.32-1.43 5.91-3.35 7.66-4.47 7-4 13.99-8.03 21.01-12.01 3.91-2.21 7.24-4.91 8.68-9.38 1.76-4.97.52-9.15-2.6-13.36-2.08-2.82-4.09-6.07-3.7-10 3.72 1.85 5.54 5.3 7.18 8.82 2.77 5.97 3.66 6.07 8.1.61 2.56-.48 2.89 1.79 3.65 3.21 5.57 10.4 13.2 19.22 20.99 27.96 7.82 8.76 16.53 16.38 26.08 23.27 17.27 12.45 36.74 19.54 57.17 24.12 31.59 7.08 62.84 4.22 92.96-6.85 23.7-8.71 43.8-23.31 60.28-42.72 5.92-6.98 11.67-13.96 16.56-21.77 5.35-8.54 9.08-17.73 13.06-26.87 1.4-3.23 1.82-7.13 5.36-9.13Z" class="cls-16"/><path d="M477.58 201.39c.22.96.73 3.27.63 4.26-.19 1.9-1.22 1.79-3.05 2.29-3.23.88-6.06 1.66-8.74 2.2-3.06.61-3.58-4.88-4.31-7.57-3.9-14.25-7.33-28.26-13.68-41.5-.11-.24-.24-.47-.37-.7-2.99-5.23-5.94-10.58-8.9-15.32-2.32-2.84-1.95-4.6 1.55-6.64 2.34-1.37 4.8-2.88 7.26-4.37 2.62-1.58 3.59-.39 4.74 1.55 5.38 9.13 9.89 18.72 13.7 28.61 4.49 11.63 7.86 23.65 10.83 35.78.12.49.24.99.33 1.41Z" class="cls-9"/><path d="M155.33 409.79c.8-1.28 3.93-1.6 1.62-4.17-.64-.71-.29-1.61.49-2.19.8-.59 1.5-.23 2.31.18 7.96 3.97 15.98 7.83 23.94 11.83 16.15 8.11 33.41 11.82 51.23 13.99 6.36.77 12.79 1.12 19.08 1.41 7.43.35 15.07-.37 22.59-1.5 11.15-1.69 22.13-3.84 32.85-7.46 11.77-3.97 22.89-9.3 33.9-14.96 2.91-1.49 4.66-5.1 8.95-4.65.34 2.35-2.2 4.16-1.56 6.55-1.61.46-3.47.56-4.8 1.44-14.76 9.81-31.12 15.74-48.13 20.17-20.5 5.34-41.28 6.22-62.28 4.1-24.83-2.5-47.88-10.46-69.57-22.57-3.41-1.9-6.81-2.79-10.62-2.16Z" style="stroke-width:0;fill:#b21109"/><path d="M405.74 349.92c-5.29-2.65-.66-5.48-.15-8.24.36-1.01.73-2.01 1.1-3.02.62-3.07 2.51-5.51 4.01-8.15-.13-1.75 1.53-2.63 2.01-4.08-.56-5.58 3.89-9.33 5.2-14.23 2.52-3.65 2.91-8.12 4.26-12.17 1.21-3.63 2.97-6.86 4.55-10.24-1.95 12.17-5.3 23.97-9.39 35.58-3.02 8.59-7.4 16.52-11.58 24.55Z" style="stroke-width:0;fill:#b31008"/><path d="M97.31 329.5c1.73 3.43 2.95 7.26 5.3 10.19 3.52 4.41 4.64 8.47 1 13.17-.13-5.31-3.34-9.34-5.66-13.75-4.17-7.93-7.27-16.29-9.53-24.95 1.77-.05 2.26.91 2.98 2.52 1.93 4.29 2.84 9.07 5.91 12.83Z" style="fill:#c1130b;stroke-width:0"/><path d="M408.7 310.15c-6.69 15.92-12.83 32.17-23.39 46.05-9.47 12.45-20.06 23.89-32.49 33.55-32.53 25.27-69.71 34.61-110.27 32.36-15.23-.84-29.59-5.18-44.12-9.78-34.76-11.02-59.04-34.58-79.71-63.03-2.37-3.26-3.27-7.39-6.12-10.37-2.24-1.99-2.22-5.23-4.1-7.42-3.27-3.79-4.58-8.33-5.06-13.2-3.63-13.14-7.88-26.13-9.39-39.79-2.32-20.97-2.36-41.72 2.88-62.43 1.97-7.78 3.68-15.55 6.5-23.1 3.01-8.06 7.19-15.53 11.38-22.92 6.42-11.32 13.96-21.87 23.22-31.25 21.69-21.99 47.5-36.57 77.29-44.24 21.84-5.63 43.87-6.23 66.13-2.49 22.6 3.8 43.35 11.83 62.43 24.66 29.75 20 51.6 46.23 63.41 80.13 7.28 20.92 10.67 42.55 9.5 64.99-.86 16.5-4.4 32.34-8.06 48.26Z" class="cls-8"/><path d="M103.43 318.32c1.95 4.3 3.99 8.56 5.06 13.2-2.61.15-4.04-.9-4.08-3.69-.01-.92-.3-2.33-.92-2.66-4.31-2.34-1.93-4.56-.06-6.84ZM417.9 312.2c-.57 5.17-3.92 9.32-5.2 14.23-1.07-.61-2.34-1.51-1.5-2.71 2.57-3.65 3.62-8.17 6.69-11.52ZM410.69 330.51c-.38 3.19-2.73 5.41-4.01 8.15-.32-3.53 1.42-6.05 4.01-8.15" class="cls-16"/><g id="dashes-right"><path d="M378.3 177.25c4.16 0 5.61 1.7 6.9 3.84 4.99 8.25 8.01 17.34 11.13 26.36 1.26 3.63 1.12 6.93-3.59 8.41-4.63 1.45-6.34-.73-7.68-4.72-2.85-8.44-5.75-16.85-10.33-24.61-2.75-4.66-.02-9.36 3.57-9.29Z" class="cls-4"/><path d="M397 302.25c.2 4.23-2.33 6.99-3.63 10.19-2.47 6.07-5.43 11.92-9.05 17.4-2.12 3.22-4.84 5.79-8.73 3.33-3.56-2.24-2.81-5.76-1.1-9.01 3.99-7.55 8.25-14.98 11.32-22.98 1.32-3.43 4.04-4.37 7.37-3.71 2.76.55 3.67 2.69 3.81 4.78Z" class="cls-17"/><path d="M288.32 115.02c-.11-4.15 2.76-6.76 6.51-5.86 9.52 2.28 18.57 5.95 27.31 10.27 3.36 1.66 5.88 4.32 3.57 8.56-2.18 4.02-5.19 3.08-8.56 1.49-7.59-3.6-15.34-6.84-23.46-9.11-2.88-.8-5.53-1.93-5.38-5.36Z" class="cls-19"/><path d="M401.06 247.22c-.02 7.19.04 13.76-.87 20.29-.57 4.08-3.03 5.89-6.87 5.65-3.74-.23-4.47-3.09-4.4-6.19.18-7.43.73-14.85.04-22.28-.36-3.86 1.27-6.43 5.01-6.85 3.71-.42 5.92 1.87 6.63 5.48.29 1.48.36 3.01.46 3.9" class="cls-5"/><path d="M338.18 140.68c.15-5.03 4.69-7.54 8.89-4.53 7.01 5.01 13.14 11.04 18.61 17.69 2.26 2.75.91 5.62-1.12 7.78-1.98 2.11-4.6 2.11-6.79.1-6.18-5.69-12.29-11.46-18.38-17.24-1.04-.99-1.04-2.45-1.21-3.79Z" class="cls-15"/><path d="M339.31 374.54c1.73 3.78 5.44 4.86 8.42 2.4 7.55-6.24 14.06-13.5 20.02-21.23 2.29-2.97 3.38-6.46-.55-9.26-3.73-2.65-6.02-.48-8.34 2.42-5.24 6.57-10.77 12.89-17.07 18.49-2.24 1.99-4.12 4.16-2.48 7.18" class="cls-19"/><path d="M294.05 403.69c-3.63.65-6.1-.5-6.92-4.19-.76-3.41.91-5.34 4.05-6.52 8.63-3.25 17.11-6.85 25.37-11.01 2.41-1.21 5.55-1.9 7.47 1.63 1.82 3.35.94 5.63-2.15 7.61-8.68 5.54-17.84 9.98-27.82 12.47Z" class="cls-14"/></g><g id="dashes-left"><path d="M128.61 177.04c-4.16 0-5.61 1.7-6.9 3.84-4.99 8.25-8.01 17.34-11.13 26.36-1.26 3.63-1.12 6.93 3.59 8.41 4.63 1.45 6.34-.73 7.68-4.72 2.85-8.44 5.75-16.85 10.33-24.61 2.75-4.66.02-9.36-3.57-9.29Z" class="cls-4"/><path d="M109.91 302.04c-.2 4.23 2.33 6.99 3.63 10.19 2.47 6.07 5.43 11.92 9.05 17.4 2.12 3.22 4.84 5.79 8.73 3.33 3.56-2.24 2.81-5.76 1.1-9.01-3.99-7.55-8.25-14.98-11.32-22.98-1.32-3.43-4.04-4.37-7.37-3.71-2.76.55-3.67 2.69-3.81 4.78Z" class="cls-17"/><path d="M218.59 114.81c.11-4.15-2.76-6.76-6.51-5.86-9.52 2.28-18.57 5.95-27.31 10.27-3.36 1.66-5.88 4.32-3.57 8.56 2.18 4.02 5.19 3.08 8.56 1.49 7.59-3.6 15.34-6.84 23.46-9.11 2.88-.8 5.53-1.93 5.38-5.36Z" class="cls-19"/><path d="M105.85 247.01c.02 7.19-.04 13.76.87 20.29.57 4.08 3.03 5.89 6.87 5.65 3.74-.23 4.47-3.09 4.4-6.19-.18-7.43-.73-14.85-.04-22.28.36-3.86-1.27-6.43-5.01-6.85-3.71-.42-5.92 1.87-6.63 5.48-.29 1.48-.36 3.01-.46 3.9" class="cls-5"/><path d="M168.73 140.47c-.15-5.03-4.69-7.54-8.89-4.53-7.01 5.01-13.14 11.04-18.61 17.69-2.26 2.75-.91 5.62 1.12 7.78 1.98 2.11 4.6 2.11 6.79.1 6.18-5.69 12.29-11.46 18.38-17.24 1.04-.99 1.04-2.45 1.21-3.79Z" class="cls-15"/><path d="M167.6 374.33c-1.73 3.78-5.44 4.86-8.42 2.4-7.55-6.24-14.06-13.5-20.02-21.23-2.29-2.97-3.38-6.46.55-9.26 3.73-2.65 6.02-.48 8.34 2.42 5.24 6.57 10.77 12.89 17.07 18.49 2.24 1.99 4.12 4.16 2.48 7.18" class="cls-19"/><path d="M212.86 403.48c3.63.65 6.1-.5 6.92-4.19.76-3.41-.91-5.34-4.05-6.52-8.63-3.25-17.11-6.85-25.37-11.01-2.41-1.21-5.55-1.9-7.47 1.63-1.82 3.35-.94 5.63 2.15 7.61 8.68 5.54 17.84 9.98 27.82 12.47Z" class="cls-14"/></g><g id="SPC_letters" data-name="SPC letters"><path d="M213.59 258.82c0-16.08.04-32.15-.05-48.23-.01-2.07.62-2.6 2.59-2.57 14.73.18 29.52-.53 44.18.56 23.62 1.77 34.2 21.67 29.45 42.13-5.41 23.32-26.32 26.42-42.96 25.89-1.6-.05-2.55-.49-2.53-2.3.05-6.44.05-12.87.03-19.31 0-2.68 1.66-2.87 3.75-2.79 3.21.13 6.44.18 9.53-1.02 4.38-1.71 7.18-4.9 6.79-9.59-.36-4.41-3.19-7.1-7.82-8.05-5.22-1.07-10.46-.49-15.68-.86-2.83-.21-3.36 1.04-3.34 3.55.2 22.52.33 45.05.43 67.57.03 6.75-.03 6.81-6.68 7.11-2.52.11-5.07.06-7.59-.17-10.07-.9-10.07-.94-10.07-11.29v-40.64h-.05Z" style="stroke-width:0;fill:#fafafb"/><path d="M178.65 207.32c7.23.82 15.26 1.73 23.08 4.01 2.62.76 3.23 1.87 2.38 4.33-1.98 5.74-3.9 11.5-5.72 17.29-1.05 3.33-3.32 2.25-5.32 1.56-7.49-2.57-15.08-3.93-22.84-1.59-3.17.95-5.84 2.8-5.9 6.71-.06 3.83 1.67 6.34 5.34 7.62 2.38.83 4.73 1.53 7.25 1.95 7.34 1.23 14.69 2.73 20.56 7.83 10.45 9.08 11.9 20.96 8.78 33.3-2.9 11.46-11.45 18.09-22.78 20.79-16.21 3.86-31.69.85-46.78-5.44-2.83-1.18-3.44-2.45-1.97-5.22 2.41-4.56 4.29-9.36 5.73-14.33.79-2.73 2.34-3.63 5.23-2.27 7.43 3.49 15.26 5.25 23.54 4.97 2.97-.1 5.7-.81 8.19-2.23 4.52-2.57 4.42-8.88-.11-11.42-5.12-2.87-10.96-3.27-16.5-4.58-8.68-2.04-15.26-6.95-20.31-14.05-4.46-6.27-3.55-25.23.98-31.6 9.89-13.93 18.94-16.24 37.16-17.62ZM297.15 222.77c19.37-19.75 51.72-17.89 69.09-9.03 5.24 1.97 5.55 2.35 3.62 7.57-2.05 4.26-4.95 10.07-6.78 14.42-1.22 2.91-2.16 4.15-5.61 1.81-13.85-9.43-32.44-6.59-40.11 5.74-7.43 11.94-6.15 27.75 2.97 36.54 8.99 8.66 25.42 9.69 36.7 1.81 3.56-2.49 4.28-2.38 6.67 1.67 2.6 4.41 5.19 8.53 8.24 12.42 1.3 1.66 1.26 2.48-.17 3.7-13.35 11.34-28.68 15.57-45.82 12.06-5.72-1.17-11.61-2.91-16.61-5.81-6.81-3.95-12.62-9.6-16.12-16.84-1.86-3.84-4.77-7.48-4.57-12.12.43-1.29 1.33-2.62 2.37-3.53 7.3-6.41 9.46-15.27 11.47-24.16 1.44-6.37-.79-12.27-2.72-18.21-.87-2.68-2.81-5.01-2.62-8.03Z" class="cls-20"/><path d="M297.15 222.77c12.3 17.3 3.34 46.54-8.47 54.75-1.73-3.61-.08-6.41 1.95-9.27 8.92-12.52 9.97-26.48 6.16-41.02-.42-1.62-1.65-3.12.36-4.46" style="stroke-width:0;fill:#adbdc6"/></g><g id="diamond"><path d="M260.44 333.77c-2.03-5.88-4.67-11.55-6.25-18.07-5.8 18.71-15.04 34.34-36.42 40.7 21.3 7.7 31.08 23.53 36.53 43.45 3.44-17.89 12.77-31.24 28.11-40.32 4.55-1.98 6.81-2.75 6.68-2.96-.53-.79-6.17-2.53-7.04-2.83-8.74-3.05-10.98-5.93-17.02-13.22-2.12-2.75-3.94-4.88-4.58-6.75Z" style="stroke-width:0;fill:#f5220d"/><path d="M259.81 333.77c-2.71.61-4.73 1.56-2.04 4.78 2.46.25 3.42 2.57 4.68 4.21 4.79 6.21 10.66 10.65 17.72 13.38 1.02-.5 2.03-.99 3.49-1.71-2.93-1.51-5.52-2.8-8.06-4.19-6.87-3.74-10.99-10.48-15.79-16.47" style="stroke-width:0;fill:#e85a49"/><path d="M280.73 355.88c-2.55-3.39-6.39-3.11-9.46-5.79-4.11-3.58-7.63-7.71-11.35-11.66-.74-.78-1.7-2.52-2.1.26 5.23 8.63 16.52 17.19 20.03 17.91.99.58 2.22-.49 2.88-.73Z" style="stroke-width:0;fill:#eed7d2"/></g><g id="spade"><path d="M248.48 124.84c1.9-3.55 3.28-7.32 4.87-12.68 3.2 11.96 8.91 20.81 17.42 27.75 4.42 3.6 8.97 7.03 13.37 10.65 5.11 4.2 8.55 9.43 9.41 16.14 2.36 12.43-8.1 18.38-17.55 17.03-7.13-1.02-12.56-4.56-16.06-10.92-1.25-2.45-1.95-3.75-3.22-5.67-2.22 8.2.17 13.57 12.28 27.63-10.67.73-21.01.41-32.42.1 11.35-7.47 15.89-15.21 14.64-28.03q-1.38 1.37-2.25 3.02c-.88 1.45-1.11 2.26-1.6 3.64-1.67 4.7-7.76 7.83-13.03 9.46-9.51 2.94-16.88-.04-21.19-9.14-.12-.28-.16-.58-.13-.88-.49-2.78-.66-5.55.12-8.3.97-2.71 3.93-8.88 6.11-10.86 2.32.59-.47 6.69.83 7.92 4.77-6.68 10.69-12.16 17-17.28 4.77-3.86 8.46-8.72 11.93-13.74.84-1.21 2.05-2.39 1.03-4.08-.66-.46-1.34-.91-1.58-1.74Z" class="cls-12"/><path d="M213.16 173.81c9.47 14.03 23.26 11.96 31.62 1.74.2-.24 1.42-1.78 2.81-2.67-2.84 10.36-9.81 14.88-18.5 14.93-8.75.05-14.43-4.94-15.93-14.01Z" style="stroke-width:0;fill:#a4120b"/><path d="M259.94 172.81c3.81 3.73 7.49 7.44 12.95 8.99 11.8 3.36 21.73-3.89 20.66-15.1 2.24 7.9-1.04 15.42-8.48 19.44-6.11 3.3-14.42 1.58-19.56-4.48-2.23-2.63-5.09-5.04-5.56-8.85Z" style="stroke-width:0;fill:#a0100a"/><path d="M248.48 124.84c.76.37 1.53.74 2.29 1.12.51 2.75-1.55 4.34-3 6.01-4.71 5.46-9.68 10.65-15.27 15.3-5.62 4.67-11.48 9.42-13.07 17.26-2.56-1.84-.27-5.23-2.31-7.24 2.21-5.06 6.75-7.93 10.8-11.19 7.76-6.23 15.24-12.69 20.55-21.26Z" style="stroke-width:0;fill:#dc513f"/><path d="M219.44 164.53c-1.19-4.37 1.27-7.21 3.92-10.19 6.37-7.15 14.47-12.45 20.66-19.78 2.36-2.79 4.91-5.41 6.75-8.59 2.38 1.65.82 3.21-.13 4.75-3.47 5.65-7.77 10.59-12.97 14.69-7 5.51-13.05 11.9-18.24 19.12Z" style="stroke-width:0;fill:#eedcd1"/></g><path d="M447.18 126.75c-10.75-15.88-22.47-30.95-36.75-43.88-5.22-4.72-10.43-9.47-15.57-14.27-2.72-2.54-4.49-2.48-6.78.89-7.73 11.41-17.62 20.96-27.6 30.35-4.44 4.17-9.79 4.05-15.05 1.21-10.84-5.84-21.71-11.66-33.42-15.6-16.65-5.6-33.63-9.24-51.32-9.82-28.74-.93-55.8 5.35-81.65 17.48-3.97 1.86-7.7 4.2-11.62 6.16-6.97 3.49-13.1 2.14-18.92-3.09-9.31-8.37-17.93-17.41-26.78-26.23-18.28 13.6-33.99 29.76-47.65 47.94-2.33 3.1-5.02 5.96-6.94 9.36-.78 1.37-2.4 2.55-1.43 4.51 8.9 5.69 17.68 11.6 26.78 16.95 2.91 1.71 5.51 3.77 8.17 5.71 2.12 1.54 3.13 4.06 3.01 6.84 3.18.94 6.13 2.33 9.03 3.85 2.52-3.56 5.18-7.02 7.35-10.87 3.2-5.7 6.77-10.7 11.18-15.52 3.78-4.13 9.17-5.92 12.9-9.86 1.8-1.91 3.07-4.14 5.11-5.86 2.69-2.26 5.9-4.09 8.9-5.89 6.09-3.66 12.49-6.94 19.12-9.6 2.41-2.06 5.38-3.51 8.27-4.72 2.87-1.21 6.46-2.54 9.85-2.59 3.06-1.2 6.32-1.83 9.45-2.84 7.72-2.49 15.22-4.55 23.25-5.83 16.59-2.64 32.64-4.33 49.44-2.64 10.39 1.04 20.96 2.7 30.56 6.63.55 0 1.12.08 1.71.21 3.4.76 6.2 2.62 9.44 3.77 2.98 1.05 5.92 1.81 8.81 3.17 4.68 2.21 9.25 5.11 12.8 8.92 5.39 3.77 9.7 9.02 15.57 11.99 1.35.69 2.31 1.58 2.93 2.58 7.09 5.51 13.36 11.86 18.3 19.56.14.1.28.2.42.31 3.24 2.57 6.02 5.83 8.6 9.32 1.24 1.19 2.43 2.42 3.5 3.79.53.67 1 1.37 1.46 2.08 5.13-.44 10.31-1.85 15.33-3.37 1.01-2.68 4.34-4.88 10.65-8.94 9.22-5.94 18.33-12.06 28.1-17.07 2.71-1.39 3.05-2.78 1.48-5.09Z" class="cls-12"/><g id="white_side" data-name="white side"><path d="M443.83 217.43c2.43-1.76 5.3-1.97 8.14-2.34 7.86-1.02 15.72-2.03 23.56-3.15 2.66-.38 3.47.63 3.85 3.2 2.61 17.56 3.88 35.21 2.56 52.92-.73 9.73-1.67 19.49-3.7 29.08-.32 1.5-.22 3.66-2.87 3.16-10.24-1.93-20.77-2.15-30.79-5.34-.93-.3-1.74-.96-2.61-1.45-.87-1.13-1.11-2.43-1.04-3.83 1.15-21.65.67-43.32 1.16-64.98.06-2.56.13-5.09 1.74-7.27" class="cls-20"/><path d="M443.83 217.43c-.27 18.96-.54 37.92-.82 56.88-.09 6.41.16 12.85-1.04 19.21-6.62-3.08-8.64-9.3-8.54-15.5.25-15.73-.44-31.5 1.14-47.21.63-6.26 3.7-10.63 9.26-13.37Z" class="cls-11"/></g><path d="M384.42 59.7c.76.57 1.46 1.23 1.99 2.02 1.02 1.52.95 2.7-.08 4.29-1.8 2.78-3.38 5.18-5.1 7.29-1.97 2.41-5.75-1.31-7.97-2.82-11.76-8.01-23.02-16.15-36.03-21.85-.23-.1-.47-.19-.71-.28-5.51-1.94-11.07-4-16.25-5.6-1.76-.3-6.8-1.8-11.38-3.09-2.91-.82-6.1-1.54-7.85-2.4-1.03-.51-1.16-1.57-1-2.3.61-2.66 1.78-7.02 2.72-10.2.14-.48.29-2.19 1.73-2.09 5.41.36 18.72 3.88 20.35 4.43 9.75 3.28 19.11 7.47 28.13 12.32 10.6 5.7 20.58 12.41 30.33 19.45.4.29.79.58 1.12.82ZM451.37 373.07c-.46.87-1.58 2.93-2.29 3.6-1.38 1.29-2.09.53-3.79-.29-3.01-1.46-5.66-2.74-8.03-4.09-2.7-1.55.47-5.99 1.67-8.49 6.32-13.21 12.85-25.94 16.67-40 .07-.25.13-.51.18-.76 1.14-5.87 2.4-11.8 3.25-17.29.09-3.65 1.52-4.71 5.48-3.95 2.72.53 5.58.99 8.33 1.5 3 .56 2.96 2.07 2.57 4.27-1.87 10.36-4.71 20.48-8.27 30.39-4.18 11.64-9.45 22.84-15.09 33.86-.23.45-.46.89-.66 1.27ZM57.97 372.23c.48.85 1.63 2.87 2.36 3.51 1.4 1.25 2.09.47 3.77-.4 2.97-1.54 5.58-2.89 7.91-4.31 2.66-1.62-.6-5.95-1.84-8.4-6.58-12.97-13.35-25.45-17.46-39.34-.07-.25-.14-.5-.19-.75-1.26-5.81-2.64-11.68-3.61-17.12-.17-3.63-1.62-4.65-5.55-3.77-2.7.6-5.54 1.14-8.26 1.73-2.98.65-2.91 2.14-2.46 4.32 2.09 10.25 5.13 20.25 8.89 30.01 4.41 11.46 9.9 22.46 15.76 33.27.24.44.48.87.69 1.25ZM33.36 201.8c-.2.95-.66 3.24-.54 4.2.23 1.86 1.26 1.73 3.1 2.18 3.25.79 6.1 1.5 8.79 1.97 3.07.53 3.47-4.88 4.15-7.55 3.58-14.1 6.71-27.97 12.76-41.14.11-.24.23-.47.35-.69 2.87-5.21 5.7-10.54 8.56-15.27 2.26-2.84 1.84-4.56-1.69-6.5-2.43-1.33-4.92-2.79-7.36-4.14-2.67-1.48-3.6-.3-4.7 1.63-5.18 9.1-9.47 18.64-13.07 28.46-4.23 11.54-7.34 23.44-10.04 35.45-.11.49-.21.97-.3 1.39Z" class="cls-9"/><g id="white_side-2" data-name="white side"><path d="M65.77 217.7c-2.41-1.79-5.28-2.03-8.11-2.43-7.84-1.12-15.69-2.21-23.52-3.43-2.65-.41-3.48.59-3.89 3.15-2.82 17.53-4.29 35.16-3.18 52.89.61 9.74 1.44 19.51 3.36 29.12.3 1.5.18 3.66 2.83 3.19 10.26-1.81 20.8-1.91 30.85-4.98.93-.28 1.75-.94 2.63-1.42.89-1.12 1.14-2.41 1.08-3.81-.89-21.66-.16-43.33-.4-64.99-.03-2.56-.07-5.1-1.65-7.29" class="cls-20"/><path d="M65.77 217.7c.05 18.96.09 37.92.15 56.88.02 6.42-.31 12.85.82 19.22 6.65-3 8.75-9.2 8.72-15.4-.07-15.74.81-31.5-.58-47.22-.56-6.26-3.58-10.67-9.1-13.48Z" class="cls-11"/></g><g id="white_side-3" data-name="white side"><path d="M216.28 55.86c-1.76-2.43-1.97-5.3-2.34-8.14-1.02-7.86-2.03-15.72-3.15-23.56-.38-2.66.63-3.47 3.2-3.85 17.56-2.61 35.21-3.88 52.92-2.56 9.73.73 19.49 1.67 29.08 3.7 1.5.32 3.66.22 3.16 2.87-1.93 10.24-2.15 20.77-5.34 30.79-.3.93-.96 1.74-1.45 2.61-1.13.87-2.43 1.11-3.83 1.04-21.65-1.15-43.32-.67-64.98-1.16-2.56-.06-5.09-.13-7.27-1.74" class="cls-20"/><path d="M216.28 55.86c18.96.27 37.92.54 56.88.82 6.41.09 12.85-.16 19.21 1.04-3.08 6.62-9.3 8.64-15.5 8.54-15.73-.25-31.5.44-47.21-1.14-6.26-.63-10.63-3.7-13.37-9.26Z" class="cls-11"/></g><path d="M126.11 59.53c-.75.58-1.42 1.25-1.93 2.04-.98 1.53-.88 2.7.2 4.26 1.87 2.73 3.5 5.09 5.28 7.16 2.03 2.36 5.69-1.4 7.86-2.94 11.5-8.16 22.5-16.44 35.31-22.33.23-.11.46-.2.7-.29 5.44-2.02 10.91-4.16 16.04-5.84 1.74-.33 6.72-1.9 11.25-3.27 2.87-.87 6.03-1.63 7.75-2.52 1.01-.53 1.12-1.58.93-2.3-.67-2.63-1.96-6.95-2.98-10.09-.16-.48-.35-2.17-1.78-2.05-5.38.45-18.54 4.17-20.15 4.75-9.62 3.43-18.83 7.75-27.69 12.73-10.4 5.85-20.17 12.68-29.7 19.85-.39.29-.77.59-1.1.84ZM383.86 452.7c.76-.57 1.46-1.23 1.99-2.02 1.02-1.52.95-2.7-.08-4.29-1.8-2.78-3.38-5.18-5.1-7.29-1.97-2.41-5.75 1.31-7.97 2.82-11.76 8.01-23.02 16.15-36.03 21.85-.23.1-.47.19-.71.28-5.51 1.94-11.07 4-16.25 5.6-1.76.3-6.8 1.8-11.38 3.09-2.91.82-6.1 1.54-7.85 2.4-1.03.51-1.16 1.57-1 2.3.61 2.66 1.78 7.02 2.72 10.2.14.48.29 2.19 1.73 2.09 5.41-.36 18.72-3.88 20.35-4.43 9.75-3.28 19.11-7.47 28.13-12.32 10.6-5.7 20.58-12.41 30.33-19.45.4-.29.79-.58 1.12-.82Z" class="cls-9"/><g id="white_side-4" data-name="white side"><path d="M215.72 456.54c-1.76 2.43-1.97 5.3-2.34 8.14-1.02 7.86-2.03 15.72-3.15 23.56-.38 2.66.63 3.47 3.2 3.85 17.56 2.61 35.21 3.88 52.92 2.56 9.73-.73 19.49-1.67 29.08-3.7 1.5-.32 3.66-.22 3.16-2.87-1.93-10.24-2.15-20.77-5.34-30.79-.3-.93-.96-1.74-1.45-2.61-1.13-.87-2.43-1.11-3.83-1.04-21.65 1.15-43.32.67-64.98 1.16-2.56.06-5.09.13-7.27 1.74" class="cls-20"/><path d="M215.72 456.54c18.96-.27 37.92-.54 56.88-.82 6.41-.09 12.85.16 19.21-1.04-3.08-6.62-9.3-8.64-15.5-8.54-15.73.25-31.5-.44-47.21 1.14-6.26.63-10.63 3.7-13.37 9.26Z" class="cls-11"/></g><path d="M125.55 452.86c-.75-.58-1.42-1.25-1.93-2.04-.98-1.53-.88-2.7.2-4.26 1.87-2.73 3.5-5.09 5.28-7.16 2.03-2.36 5.69 1.4 7.86 2.94 11.5 8.16 22.5 16.44 35.31 22.33.23.11.46.2.7.29 5.44 2.02 10.91 4.16 16.04 5.84 1.74.33 6.72 1.9 11.25 3.27 2.87.87 6.03 1.63 7.75 2.52 1.01.53 1.12 1.58.93 2.3-.67 2.63-1.96 6.95-2.98 10.09-.16.48-.35 2.17-1.78 2.05-5.38-.45-18.54-4.17-20.15-4.75-9.62-3.43-18.83-7.75-27.69-12.73-10.4-5.85-20.17-12.68-29.7-19.85-.39-.29-.77-.59-1.1-.84Z" class="cls-9"/></svg>